<svg width="29" height="9" viewBox="0 0 29 9" fill="none" xmlns="http://www.w3.org/2000/svg">
<g clip-path="url(#clip0_175_14)">
<path d="M15.4787 3.75L14.4999 0.75L13.5212 3.75H10.4722L12.9613 5.40375L12.0148 8.25L14.4999 6.49125L16.9891 8.25L16.0426 5.40375L18.5277 3.75H15.4787Z" fill="#F29D38"/>
</g>
<g clip-path="url(#clip1_175_14)">
<path d="M25.1457 3.75L24.1669 0.75L23.1882 3.75H20.1392L22.6283 5.40375L21.6818 8.25L24.1669 6.49125L26.6561 8.25L25.7096 5.40375L28.1947 3.75H25.1457Z" fill="#F29D38"/>
</g>
<g clip-path="url(#clip2_175_14)">
<path d="M5.81219 3.75L4.83344 0.75L3.85469 3.75H0.805664L3.29483 5.40375L2.3483 8.25L4.83344 6.49125L7.32261 8.25L6.37608 5.40375L8.86122 3.75H5.81219Z" fill="#F29D38"/>
</g>
<defs>
<clipPath id="clip0_175_14">
<rect width="9.66667" height="9" fill="white" transform="translate(9.6665)"/>
</clipPath>
<clipPath id="clip1_175_14">
<rect width="9.66667" height="9" fill="white" transform="translate(19.3335)"/>
</clipPath>
<clipPath id="clip2_175_14">
<rect width="9.66667" height="9" fill="white"/>
</clipPath>
</defs>
</svg>
